<svg version="1.1" id="Layer_1" xmlns="http://www.w3.org/2000/svg" xmlns:xlink="http://www.w3.org/1999/xlink" x="0px" y="0px"
	 width="100%" viewBox="0 0 560 560" enable-background="new 0 0 560 560" xml:space="preserve">
<path fill="#c8dee7" opacity="1.000000" stroke="none" 
	d="
M25.582500,312.245605 
	C25.276640,310.659424 24.815548,309.539978 24.758913,308.400421 
	C22.894814,270.890900 27.294178,234.520706 43.338924,200.001114 
	C54.368362,176.271744 68.672623,154.998734 86.646210,135.953430 
	C114.176437,106.781609 146.868256,85.719589 184.142395,71.291702 
	C204.510818,63.407600 225.491776,58.084000 247.015747,54.833241 
	C267.825439,51.690365 288.893402,51.562355 309.737915,52.941669 
	C350.933197,55.667625 389.897278,67.157463 426.154449,87.111366 
	C445.857666,97.954903 463.843079,111.119949 480.183563,126.750084 
	C500.683899,146.359253 517.306335,168.657654 529.871887,193.971649 
	C540.422791,215.227219 547.496277,237.762604 550.074829,261.305450 
	C554.523987,301.928436 549.964905,341.384552 532.543335,378.942566 
	C521.540039,402.664001 507.180603,423.876129 489.280212,442.951416 
	C464.222717,469.653595 434.619965,489.490234 401.156342,503.965973 
	C377.863800,514.041870 353.580078,520.453979 328.570587,524.226440 
	C308.087891,527.316162 287.362122,527.384949 266.834229,526.108032 
	C235.242615,524.142883 204.671051,516.832703 175.459290,504.261108 
	C149.649490,493.153625 125.623375,479.080688 104.581047,460.442230 
	C74.427765,433.733643 51.021301,402.210419 37.360767,363.857330 
	C31.431915,347.211578 27.161648,330.299103 25.582500,312.245605 
M135.345352,124.887451 
	C131.126663,128.370850 126.877693,131.819992 122.667633,135.311295 
	C106.148827,149.009888 92.064514,164.900528 80.398865,182.784958 
	C62.427719,210.336258 51.272038,240.613022 48.590370,273.436981 
	C46.565269,298.224548 49.093834,322.829376 56.830917,346.675293 
	C63.441029,367.047882 73.204575,385.804504 85.469582,403.356873 
	C97.082649,419.976288 111.214760,434.236511 126.636765,447.145233 
	C144.564178,462.151093 164.848373,473.471527 186.307678,482.719940 
	C213.048874,494.244659 241.074631,500.786713 269.996613,502.459320 
	C300.963257,504.250214 331.647827,501.577606 361.626434,492.688995 
	C397.040436,482.188690 429.065125,465.365631 456.736877,440.956268 
	C481.726807,418.912598 501.041107,392.485962 513.749329,361.464478 
	C517.841675,351.474884 520.993469,341.235107 522.810181,330.551514 
	C518.046387,341.367981 509.023834,347.734833 498.582336,350.804565 
	C473.062805,358.307190 448.692902,355.963226 426.971680,338.933014 
	C418.075348,331.957947 413.961761,316.864014 418.275085,306.433289 
	C422.820770,295.440613 432.158661,290.020844 442.646240,286.762878 
	C460.846924,281.108734 479.173279,281.964417 496.777649,289.148895 
	C508.002594,293.729828 517.642639,300.664307 522.398254,312.758514 
	C524.052551,316.965576 522.853088,321.360291 524.072632,325.527313 
	C525.203430,320.155884 526.276550,314.868042 526.793091,309.435669 
	C528.691589,289.471252 528.089844,269.677673 523.806885,250.040787 
	C519.170898,228.785416 511.174286,208.918686 500.124725,190.149979 
	C485.576233,165.437912 466.376251,144.941727 443.901459,127.493942 
	C424.105621,112.125938 402.107361,100.490128 378.593872,91.825676 
	C355.131195,83.179932 330.813049,77.963226 305.918060,76.582321 
	C291.700836,75.793709 277.357635,75.787437 263.042664,77.204224 
	C244.831665,79.006584 227.012787,82.411301 209.558533,87.782326 
	C183.005142,95.953339 158.567276,108.411102 135.345352,124.887451 
z"/>
<path fill="#c8dee7" opacity="1.000000" stroke="none" 
	d="
M308.105896,341.355316 
	C290.567566,350.147888 280.258301,347.363983 264.946442,334.795105 
	C247.831390,320.746155 241.702896,300.574860 236.697998,280.053467 
	C233.416443,266.598267 232.340317,252.953888 232.573685,239.087631 
	C232.951050,216.666138 246.215164,197.435135 268.976044,193.243515 
	C288.472839,189.652985 308.111633,189.791748 326.368439,199.219131 
	C341.215027,206.885574 348.277985,219.632874 349.412415,236.183624 
	C350.795258,256.359192 344.821411,275.213440 339.894165,294.311188 
	C337.440308,303.822052 334.880127,313.313141 329.891510,321.800690 
	C324.833099,330.407013 317.527985,336.869171 308.105896,341.355316 
M311.800201,303.416229 
	C316.981262,291.190826 318.632996,278.013367 322.904358,264.795715 
	C301.006470,268.325073 279.879120,268.323700 258.029327,265.375275 
	C259.710907,272.525818 260.815582,278.536957 262.555054,284.358398 
	C266.743103,298.374268 272.430420,311.529816 285.312775,320.049194 
	C288.238312,321.983948 291.265381,322.565796 294.630981,321.200104 
	C302.721527,317.916992 308.482483,312.356354 311.800201,303.416229 
M257.003479,234.998642 
	C256.085754,236.816605 256.463074,238.096161 258.387482,239.032333 
	C260.629242,240.122910 262.880646,241.089600 265.321442,241.680161 
	C277.428772,244.609573 289.764221,244.001160 301.970581,243.355850 
	C308.627777,243.003906 315.423157,241.862518 321.934204,239.750977 
	C325.166565,238.702713 326.230896,236.828461 325.346436,233.758835 
	C323.677521,227.966843 320.701721,223.181183 315.009674,220.440933 
	C302.107849,214.229813 288.562012,213.756058 274.860626,216.366318 
	C265.128540,218.220383 259.268372,224.523788 257.003479,234.998642 
z"/>
<path fill="#c8dee7" opacity="1.000000" stroke="none" 
	d="
M107.962814,354.381714 
	C93.644104,355.255493 80.863937,352.407227 69.147110,344.614166 
	C50.487530,332.203308 50.631348,306.957031 69.840576,294.878357 
	C94.026016,279.670654 119.373260,279.296478 144.745499,291.488220 
	C161.088043,299.341064 166.391663,316.834167 157.392212,331.716827 
	C152.480057,339.840179 144.873306,345.297760 136.027344,348.911713 
	C127.182915,352.524994 118.069824,354.694489 107.962814,354.381714 
z"/>
<path fill="#c8dee7" opacity="1.000000" stroke="none" 
	d="
M448.904480,262.387207 
	C435.159058,260.677338 421.857147,259.026947 408.571625,257.253540 
	C402.855835,256.490570 398.518433,252.307526 397.729492,247.149139 
	C396.553802,239.462463 398.934631,234.095490 405.176971,231.504883 
	C427.558105,222.216599 449.953094,212.958511 472.432892,203.912704 
	C481.459351,200.280502 489.520294,203.027008 492.431244,210.108978 
	C495.493469,217.558899 492.041046,225.404648 484.520966,228.431213 
	C478.275299,230.944855 472.105011,233.645706 466.057983,237.240891 
	C472.871185,238.054214 479.675781,238.950867 486.500214,239.655472 
	C492.357147,240.260162 497.913452,244.137894 499.122864,248.728928 
	C500.808319,255.127045 498.852112,261.714996 494.008667,264.760590 
	C489.127319,267.829956 483.562378,266.573792 478.392731,266.133728 
	C468.677704,265.306732 459.030212,263.686920 448.904480,262.387207 
z"/>
<path fill="#c8dee7" opacity="1.000000" stroke="none" 
	d="
M100.087112,242.724960 
	C107.827339,240.714233 115.331024,239.336731 123.142937,236.187729 
	C116.095566,232.630035 108.985336,231.355011 102.209793,229.143936 
	C92.313965,225.914658 88.471985,216.468674 93.580818,207.843109 
	C96.364220,203.143707 103.479805,201.159454 110.582909,203.362473 
	C129.412247,209.202347 148.208221,215.149750 167.019974,221.046295 
	C170.968048,222.283813 174.972610,223.357544 178.870499,224.734985 
	C185.457672,227.062790 187.467148,230.511398 187.345932,238.722229 
	C187.259109,244.602051 184.461456,248.694305 178.406876,250.362473 
	C164.523727,254.187515 150.550476,257.685944 136.610443,261.303986 
	C126.680977,263.881134 116.809219,266.732605 106.786491,268.876221 
	C101.867477,269.928284 96.591423,270.611328 92.233139,266.351654 
	C84.364754,258.661316 88.059181,246.800293 100.087112,242.724960 
z"/>
</svg>